<?xml version="1.0" encoding="UTF-8"?>
<svg id="Layer_1" data-name="Layer 1" xmlns="http://www.w3.org/2000/svg" viewBox="0 0 50 50">
  <defs>
    <style>
      .cls-1 {
        fill: #ceb79a;
      }

      .cls-2 {
        stroke: #ceb79a;
      }

      .cls-2, .cls-3 {
        fill: none;
        stroke-miterlimit: 10;
      }

      .cls-3 {
        stroke: #455249;
        stroke-width: .96px;
      }
    </style>
  </defs>
  <path class="cls-3" d="m14.5,42.28c-1.57.95-3.54.13-3.82,0-5.89-2.59-6.82-17.74-3.58-25.51,3.04.66,5.42,2.65,7.24,4.6.66,4.93,4.52,18.27.15,20.91Z"/>
  <path class="cls-3" d="m39.19,42.28c-.28.13-2.25.95-3.82,0-4.3-2.6-.62-15.59.12-20.69,1.82-1.98,4.22-4.07,7.29-4.79,3.24,7.77,2.3,22.9-3.59,25.48Z"/>
  <path class="cls-2" d="m46.03,9.05c-3.24-2.11-8.19-2.93-12.36-.8-1.62.84-2.6,1.84-3.32,2.57-2.44,2.52-3.75,5.47-5.33,11.87-1.58-6.4-2.89-9.36-5.33-11.87-.71-.73-1.7-1.73-3.32-2.57-4.16-2.13-9.12-1.31-12.36.8-1.39.92-3.55,2.75-2.96,3.46.55.67,2.49-.09,5.2.25.29.04.58.09.86.15,3.04.66,5.42,2.65,7.24,4.6.78.83,1.46,1.65,2.02,2.34,1.99,2.42,3.49,5.2,4.84,7.73.53,1,.8,1.5.96,1.93,1.3,3.44-.11,5.08.78,8.95.26,1.13.72,2.49,1.24,3.31.27.42.55.71.83.74.02,0,.05,0,.07,0,.29,0,.49-.31.56-.41.09-.13.16-.26.24-.4.03-.04.05-.09.07-.13.48-.83.9-2.07,1.14-3.11.89-3.87-.52-5.51.78-8.95.16-.42.42-.93.96-1.93,1.35-2.53,2.84-5.31,4.83-7.73.53-.64,1.14-1.37,1.82-2.12,1.82-1.98,4.22-4.07,7.29-4.79.33-.08.67-.13,1.02-.18,2.72-.34,4.65.42,5.2-.25.58-.71-1.57-2.54-2.97-3.46Z"/>
  <path class="cls-1" d="m25.02,42.51s-.05,0-.08,0c-.28,0-.48-.31-.55-.41-.08-.11-.14-.21-.2-.34.27.42.55.71.83.74Z"/>
</svg>