<?xml version="1.0" encoding="UTF-8"?>
<svg id="Layer_1" data-name="Layer 1" xmlns="http://www.w3.org/2000/svg" viewBox="0 0 50 50">
  <defs>
    <style>
      .cls-1 {
        stroke-linecap: round;
      }

      .cls-1, .cls-2, .cls-3 {
        fill: #d2b74e;
        stroke: #d2b74e;
      }

      .cls-1, .cls-3 {
        stroke-linejoin: round;
        stroke-width: .99px;
      }

      .cls-2 {
        stroke-miterlimit: 10;
      }
    </style>
  </defs>
  <g id="Layer_2" data-name="Layer 2">
    <path class="cls-2" d="m25,25c.1,0,.2,0,.3.1l-.1-.3-.5.2h.3Z"/>
    <path class="cls-3" d="m15,17.8v21.5H.7v-21.5c0-4,3.2-7.2,7.2-7.2s7.1,3.2,7.1,7.2h0Z"/>
    <path class="cls-3" d="m31.6,17.8v21.5h-14.4v-21.5c0-4,3.2-7.2,7.2-7.2s7.2,3.2,7.2,7.2h0Z"/>
    <polygon class="cls-1" points="35.2 11.1 38.6 17 42.3 23.3 45.9 17 49.3 11.1 35.2 11.1"/>
    <path class="cls-1" d="m49.3,15.5c-4.6,7.9-9.3,15.9-13.9,23.8h13.9s0-23.8,0-23.8Z"/>
  </g>
</svg>